<?xml version="1.0" ?><!DOCTYPE svg  PUBLIC '-//W3C//DTD SVG 1.1//EN'  'http://www.w3.org/Graphics/SVG/1.1/DTD/svg11.dtd'><svg enable-background="new 0 0 512 512" height="512px" id="svg2" version="1.1" viewBox="0 0 512 512" width="512px" xml:space="preserve" xmlns="http://www.w3.org/2000/svg" xmlns:cc="http://creativecommons.org/ns#" xmlns:dc="http://purl.org/dc/elements/1.1/" xmlns:rdf="http://www.w3.org/1999/02/22-rdf-syntax-ns#" xmlns:svg="http://www.w3.org/2000/svg" xmlns:xlink="http://www.w3.org/1999/xlink"><g><path d="M305.85,146.547c-9.144-0.256-16.135-7.246-16.39-16.39s7.63-16.144,16.39-16.388   c9.141-0.255,16.143,7.63,16.388,16.388C322.492,139.298,314.608,146.302,305.85,146.547z" fill="#007AFF"/><path d="M186.156,270.457c-14.262-0.289-25.434-11.465-25.723-25.726c-0.289-14.26,11.9-25.44,25.723-25.721   c14.257-0.289,25.444,11.899,25.725,25.721C212.17,258.991,199.981,270.177,186.156,270.457z" fill="#007AFF"/><path d="M478.865,293.806c-9.969-15.928-21.439-30.987-30.055-47.733c-1.677-3.26-2.525-5.153-3.614-8.272   c-0.527-1.511-0.942-3.055-1.291-4.615c-0.036-0.16-0.148-0.936-0.206-1.292c-0.031-0.456-0.049-0.912-0.057-1.368   c0.177-38.897,11.877-83.231-11.418-118.023c-11.739-17.535-23.34-34.891-38.152-50.066c-22.773-23.33-51.141-40.366-82.271-49.955   c-45.011-13.864-94.707-11.845-140.243-1.71c-38.947,8.668-76.113,26.957-103.521,56.383   c-21.025,22.573-35.189,50.671-43.287,80.289c-5.855,21.417-8.426,43.67-9.143,65.823c-0.46,14.234,0.658,27.945,5.346,41.529   c6.646,19.262,18.048,36.466,30.329,52.553c11.851,15.523,24.789,30.159,36.948,45.434c9.142,11.484,18.723,24.413,22.346,37.64   c0.391,1.423,0.674,2.874,0.914,4.33c-0.147-0.692,0.15,2.632,0.158,3.296c0.009,0.654-0.313,3.974-0.169,3.233   c-0.503,3.175-1.211,6.331-1.813,9.487c-2.668,14.001-5.282,28.013-7.869,42.028c-2.856,15.47-5.683,30.945-8.447,46.432   c-0.93,5.207,2.22,10.443,7.955,10.443c47.667,0,95.335,0,143.002,0c27.577,0,55.154,0,82.731,0c5.287,0,9.482-5.279,7.955-10.443   c-1.365-4.616-1.478-6.573-1.731-10.318c-0.521-7.674,0.261-14.404,4.239-20.934c9.6-15.756,34.858-10.828,50.043-10.772   c11.013,0.04,22.194-1.193,32.503-5.231c12.918-5.06,23.89-14.092,32.118-25.202c6.382-8.617,10.991-19.448,7.708-30.221   c-1.143-3.751-3.26-7.133-5.975-9.943c1.208-4.027,2.416-8.055,3.624-12.083c1.819-6.067-3.378-11.482-5.784-16.727   c-1.222-2.663-2.132-6.097-2.038-9.044c-0.002,0.058,0.001-0.377,0.786-1.125c0.941-0.896,4.58-1.592,6.355-1.975   c10.585-2.287,21.308-1.181,29.167-10.143C497.517,322.386,486.441,305.909,478.865,293.806z M270.846,267.26   c-0.654,2.563-3.048,5.293-5.762,5.762c-4.068,0.703-11.521,0.671-13.656,4.863c-2.114,4.152,1.659,9.116,3.391,12.801   c1.715,3.647,1.281,6.908-1.289,9.998c-3.475,4.176-7.255,7.966-11.43,11.442c-3.068,2.555-6.373,3.032-9.998,1.29   c-3.361-1.616-9.031-5.762-12.811-3.396c-4.226,2.644-3.982,9.235-4.863,13.655c-0.541,2.72-3.145,5.096-5.762,5.762   c-5.95,1.514-12.021,2.424-18.148,2.817c-2.737,0.176-5.868-1.667-7.123-4.086c-2.015-3.881-4.126-10.431-9.028-11.207   c-4.296-0.679-8.337,5.116-11.056,7.656c-1.979,1.849-5.317,3.213-8.027,2.121c-5.705-2.298-11.154-4.901-16.361-8.188   c-3.422-2.161-4.375-5.494-3.791-9.317c0.675-4.42,2.781-9.476-0.754-12.729c-3.725-3.428-7.938-1.415-12.74-0.761   c-3.842,0.523-7.132-0.33-9.316-3.791c-3.285-5.203-5.889-10.65-8.167-16.36c-1.072-2.687,0.245-6.078,2.121-8.027   c2.347-2.437,8.655-7.055,7.654-11.049c-1.251-4.991-7.045-6.844-11.218-9.021c-2.416-1.262-4.265-4.382-4.086-7.124   c0.383-5.862,1.242-11.658,2.635-17.363c0.178-3.016,1.996-5.771,5.94-6.545c4.089-0.803,11.503-0.627,13.666-4.876   c2.099-4.125-1.623-9.16-3.392-12.81c-1.752-3.614-1.263-6.94,1.289-9.998c3.479-4.167,7.259-7.954,11.425-11.433   c3.08-2.57,6.36-3.008,9.998-1.29c3.381,1.598,9.021,5.773,12.813,3.397c4.176-2.615,4.062-9.262,4.861-13.664   c0.492-2.709,3.181-5.113,5.762-5.762c5.953-1.496,12.016-2.408,18.141-2.813c2.791-0.184,5.8,1.687,7.123,4.086   c2.131,3.861,4.063,10.426,9.039,11.21c4.216,0.665,8.422-5.086,11.04-7.658c1.921-1.887,5.365-3.192,8.027-2.121   c5.71,2.297,11.161,4.904,16.376,8.184c3.424,2.154,4.375,5.499,3.791,9.317c-0.676,4.426-2.788,9.478,0.754,12.732   c3.685,3.387,7.988,1.498,12.74,0.747c3.813-0.604,7.168,0.38,9.316,3.791c3.281,5.21,5.887,10.659,8.169,16.372   c1.077,2.697-0.254,6.065-2.121,8.027c-2.335,2.452-8.654,7.052-7.653,11.052c1.263,5.048,7.049,6.775,11.216,9.034   c2.407,1.306,4.266,4.348,4.086,7.124C273.271,255.245,272.367,261.305,270.846,267.26z M374.178,135.302   c-2.545,1.218-8.045,2.868-8.615,5.984c-0.497,2.708,3.813,5.916,5.411,7.724c2.701,3.056,2.872,6.37,1.29,9.998   c-1.76,4.031-3.805,7.859-6.238,11.523c-2.246,3.38-5.427,4.396-9.317,3.791c-1.899-0.295-3.792-0.631-5.688-0.949   c1.491,0.251-2.655-0.284-3.293,0.739c-1.957,3.14-0.585,7.481-0.201,10.968c0.309,2.807-1.791,5.77-4.086,7.124   c-4.404,2.599-9.014,4.694-13.807,6.472c-2.693,0.999-6.084-0.179-8.027-2.121c-1.63-1.631-5.235-6.845-7.934-6.005   c-3.002,0.934-4.565,5.342-5.965,7.942c-1.268,2.357-4.38,4.338-7.123,4.086c-5.117-0.47-10.125-1.287-15.08-2.656   c-2.532-0.699-5.328-3.013-5.762-5.762c-0.399-2.527-0.268-8.91-2.77-10.261c-3.067-1.656-5.682,0.849-8.971,2.304   c-3.627,1.604-6.941,1.393-9.998-1.29c-3.308-2.904-6.289-6.044-9.035-9.483c-2.448-3.069-3.148-6.385-1.289-9.998   c0.997-1.938,4.505-6.623,3.125-8.851c-1.753-2.832-6.87-2.846-9.898-3.491c-2.657-0.566-5.177-3.119-5.762-5.762   c-1.107-4.999-1.801-10.063-2.029-15.179c-0.065-1.457,0.395-2.973,1.189-4.281c0.445-0.81,1.08-1.559,1.936-2.207   c0.096-0.074,0.195-0.137,0.294-0.206c0.17-0.118,0.347-0.233,0.532-0.343c0.047-0.026,0.088-0.062,0.135-0.087   c0.161-0.086,0.322-0.172,0.482-0.259c0.396-0.213,0.79-0.379,1.182-0.524c2.594-1.094,7.01-2.826,6.936-5.286   c-0.091-2.983-3.44-5.575-5.404-7.649c-2.785-2.943-2.832-6.466-1.289-9.998c1.758-4.025,3.799-7.854,6.23-11.515   c2.26-3.399,5.416-4.364,9.317-3.791c1.903,0.279,3.798,0.623,5.695,0.94c-1.486-0.249,2.66,0.292,3.298-0.732   c1.939-3.115,0.621-7.5,0.193-10.961c-0.346-2.793,1.817-5.782,4.086-7.124c4.401-2.603,9.004-4.702,13.793-6.488   c2.683-1.001,6.096,0.176,8.027,2.121c1.616,1.629,5.277,6.846,7.953,6.015c3.021-0.939,4.532-5.345,5.955-7.947   c1.283-2.35,4.368-4.345,7.123-4.086c5.115,0.479,10.123,1.288,15.076,2.663c2.603,0.722,5.232,3,5.762,5.762   c0.486,2.534,0.252,8.89,2.781,10.255c3.054,1.649,5.689-0.863,8.977-2.307c3.629-1.592,6.939-1.401,9.998,1.29   c3.3,2.905,6.279,6.039,9.014,9.481c2.526,3.183,3,6.267,1.289,9.998c-0.931,2.031-4.531,6.549-3.109,8.848   c1.768,2.858,6.852,2.845,9.9,3.484c2.659,0.558,5.175,3.126,5.762,5.762c1.115,5.006,1.804,10.077,2.035,15.201   C378.385,130.863,376.651,134.119,374.178,135.302z" fill="#007AFF"/></g></svg>